# xmcd
#
# Track frame offsets:
#	150
#	10449
#	22181
#	35734
#	48100
#	60230
#	72912
#	86577
#	101508
#	113298
#	122229
#	136384
#	150552
#	161113
#	171467
#
# Disc length: 2441 seconds
#
# Revision: 1
# Processed by: cddbd v1.5.1PL0 Copyright (c) Steve Scherf et al.
# Submitted via: EasyCDDAExtractor 6.2.0.3
#
DISCID=c409870f
DTITLE=Ray Charles - This IS Gold[Disc 02]
DYEAR=1900
DGENRE=Soul
TTITLE0=Sitting on the top of the world (now she's gone)
TTITLE1=If I give you my love
TTITLE2=Baby let me hold your hand
TTITLE3=I'm glade for your sake
TTITLE4=I've had my fun (going down slow)
TTITLE5=Lonely boy
TTITLE6=This love of mine
TTITLE7=I'm wondering and wondering
TTITLE8=Can't you see me darling
TTITLE9=All to myself
TTITLE10=Someday
TTITLE11=Walkin' and talkin' ( to myself)
TTITLE12=The ego song
TTITLE13=Hey now
TTITLE14=Roll with me baby
EXTD=
EXTT0=
EXTT1=
EXTT2=
EXTT3=
EXTT4=
EXTT5=
EXTT6=
EXTT7=
EXTT8=
EXTT9=
EXTT10=
EXTT11=
EXTT12=
EXTT13=
EXTT14=
PLAYORDER=
